<?xml version="1.0" encoding="utf-8"?>
<?xml-stylesheet type="text/xsl" href="rss1.xsl"?>
<rss version="2.0" xmlns:atom="http://www.w3.org/2005/Atom" xmlns:content="http://purl.org/rss/1.0/modules/content/" xmlns:dc="http://purl.org/dc/elements/1.1/" xmlns:media="http://search.yahoo.com/mrss/">
<channel>
 <title>Getty</title>
 <link>http://www.gettyimg.com/</link>
 <atom:link href="http://www.gettyimg.com/" rel="self" type="application/rss+xml" />

 
                <item>
                <title><![CDATA[【Requests】[REQ AUD] - Lana Del Rey - Blue Jeans (Clean Version) in FLAC or WAV]]></title>
                <link><![CDATA[https://sharemania.us/threads/lana-del-rey-blue-jeans-clean-version-in-flac-or-wav.232792/]]></link>
                <description><![CDATA[<article>
<blockquote class="messageText SelectQuoteContainer ugc baseHtml">
Does anyone have the clean version of Blue Jeans?<br>
I believe this is the clean version but I can't preview or download it because of region restricted content.<br>
<a href="https://tidal.com/browse/track/13510054" target="_blank" class="externalLink" rel="nofollow">https://tidal.com/browse/track/13510054</a>
<div class="messageTextEndMarker">&nbsp;</div>
</blockquote>
</article>]]></description>
                <author><![CDATA[diamondphoenix]]></author>
                </item>

                
                <item>
                <title><![CDATA[【UPSCALED】Paula Abdul &amp; MC Skat Kat - Opposites Attract [4K AI Upscale | HEVC 10-bit | PCM]]]></title>
                <link><![CDATA[https://sharemania.us/threads/paula-abdul-mc-skat-kat-opposites-attract-4k-ai-upscale-hevc-10-bit-pcm.232793/]]></link>
                <description><![CDATA[<article>
<blockquote class="messageText SelectQuoteContainer ugc baseHtml">
<b><img src="https://images2.imgbox.com/6a/e4/3tmD51wG_o.jpg" class="bbCodeImage LbImage" alt="[​IMG]" data-url="https://images2.imgbox.com/6a/e4/3tmD51wG_o.jpg" style=""> <br>
<br>
Genre: <span style="color: #0059b3">Electronic</span> <br>
Style: <span style="color: #0059b3">Synth-pop</span> <br>
Year: <span style="color: #0059b3">1988</span><br>
Video Source: <span style="color: #0059b3">Apple Music, thanks SonMaxime</span><br>
Audio Source: <span style="color: #0059b3">Qobuz, Greatest Hits - Straight Up!, 7″ Edit</span></b><br>
<br>
"<b>Opposites Attract</b>" is a song by American singer Paula Abdul from her debut album, <i>Forever Your Girl</i> (1988). It was written and produced by Oliver Leiber. Lyrically, the song is about a couple who love each other despite being different in almost every way possible. The vocals on the song, in addition to Abdul, were provided by Bruce DeShazer and Marv Gunn, also known as the Wild Pair.<br>
"Opposites Attract" was the sixth and final single from the album in November 1989 and achieved success in many countries, including the United States, Canada, and Australia. It became Abdul's fourth number-one single on the <i>Billboard</i> Hot 100 and made her the fourth artist in music history to score four number-one hits from a single album, after Whitney Houston, George Michael and Michael Jackson. (Janet Jackson, Mariah Carey, Usher and Katy Perry would later duplicate the feat). "Opposites Attract" also topped the charts in Australia and Canada and peaked at number two in the United Kingdom. <br>
<br>
The song's accompanying music video was directed by Michael Patterson and Candace Reckinger, in which Abdul dances with cartoon character MC Skat Kat, voiced by the Wild Pair, Bruce DeShazer and Marvin Gunn. An additional rap, written by Romany Malco, was provided by Derrick "Delite" Stevens for the Street mix version of the song, which was edited for the 7" video.<br>
<br>
The idea of MC Skat Kat came from the Gene Kelly film <i>Anchors Aweigh</i>, where Kelly dances with Jerry Mouse from the <i>Tom and Jerry</i> cartoon series. Paula even choreographed the animated character's moves to match her live-action dance moves in the video. MC Skat Kat was animated by members of the Disney animation team, working outside the studio between major projects, under the direction of Chris Bailey. MC Skat Kat's movements were the result of rotoscoping animation, with Michael "Boogaloo Shrimp" Chambers standing in for the character against a blue screen, then drawing the animated form over Chambers' dance moves. The Wild Pair Marvin Gunn and Bruce DeShazer did not appear in the video, although two other cats (also animated) did appear, possibly meant to represent them.<br>
<br>
The video won the 1991 Grammy Award for Best Short Form Music Video and was nominated for Breakthrough Video at the 1990 MTV Video Music Awards.<br>
<br>
<b>Release Info</b><br>
The video track is upscaled to 4K with Topaz Video AI, encoded to HEVC 10-bit.<br>
The PCM track is lossless (Qobuz, CD quality) and synced with Adobe Audition.<br>
The timed lyrics are synced and edited. Enable the subtitles to see the lyrics.<br>
<br>
<div class="ToggleTriggerAnchor bbCodeSpoilerContainer">
<button type="button" class="button bbCodeSpoilerButton ToggleTrigger Tooltip JsOnly" data-target="> .SpoilerTarget"><span>Spoiler: <span class="SpoilerTitle">Media Info</span></span></button>
<div class="SpoilerTarget bbCodeSpoilerText">
<div class="bbCodeBlock bbCodeCode">
<div class="type">Code:</div>
<pre>General
Unique ID                      : 90187815369652399624245670085078051790 (0x43D98A9AC2306F9CA6CB96A23C246BCE)
Complete name                  : Paula Abdul &amp; MC Skat Kat - Opposites Attract.mkv
Format                         : Matroska
Format version                 : Version 4 / Version 2
File size                      : 274 MiB
Duration                       : 3 min 43 s
Overall bit rate               : 10.3 Mb/s
Frame rate                     : 23.976 FPS
Encoded date                   : 2023-11-24 19:05:33 UTC
Writing application            : mkvmerge v80.0 ('Roundabout') 64-bit
Writing library                : libebml v1.4.4 + libmatroska v1.7.1
Cover                          : Yes
Attachments                    : cover.jpg

Video
ID                             : 1
Format                         : HEVC
Format/Info                    : High Efficiency Video Coding
Format profile                 : Main 10@L5@Main
Codec ID                       : V_MPEGH/ISO/HEVC
Duration                       : 3 min 43 s
Bit rate                       : 8 600 kb/s
Width                          : 2 864 pixels
Height                         : 2 160 pixels
Display aspect ratio           : 4:3
Frame rate mode                : Constant
Frame rate                     : 23.976 (24000/1001) FPS
Color space                    : YUV
Chroma subsampling             : 4:2:0
Bit depth                      : 10 bits
Bits/(Pixel*Frame)             : 0.058
Stream size                    : 229 MiB (84%)
Writing library                : x265 3.5+1-f0c1022b6:[Windows][GCC 13.2.0][64 bit] 10bit
Encoding settings              : cpuid=1111039 / frame-threads=6 / numa-pools=32 / wpp / no-pmode / no-pme / no-psnr / no-ssim / log-level=2 / input-csp=1 / input-res=2864x2160 / interlace=0 / total-frames=0 / level-idc=0 / high-tier=1 / uhd-bd=0 / ref=4 / no-allow-non-conformance / no-repeat-headers / annexb / no-aud / no-eob / no-eos / no-hrd / info / hash=0 / temporal-layers=0 / open-gop / min-keyint=24 / keyint=240 / gop-lookahead=0 / bframes=4 / b-adapt=2 / b-pyramid / bframe-bias=0 / rc-lookahead=25 / lookahead-slices=4 / scenecut=40 / no-hist-scenecut / radl=0 / no-splice / no-intra-refresh / ctu=64 / min-cu-size=8 / rect / no-amp / max-tu-size=32 / tu-inter-depth=1 / tu-intra-depth=1 / limit-tu=0 / rdoq-level=2 / dynamic-rd=0.00 / no-ssim-rd / signhide / no-tskip / nr-intra=0 / nr-inter=0 / no-constrained-intra / strong-intra-smoothing / max-merge=3 / limit-refs=3 / limit-modes / me=3 / subme=3 / merange=57 / temporal-mvp / no-frame-dup / no-hme / weightp / no-weightb / no-analyze-src-pics / deblock=0:0 / sao / no-sao-non-deblock / rd=4 / selective-sao=4 / no-early-skip / rskip / no-fast-intra / no-tskip-fast / no-cu-lossless / no-b-intra / no-splitrd-skip / rdpenalty=0 / psy-rd=2.00 / psy-rdoq=1.00 / no-rd-refine / no-lossless / cbqpoffs=0 / crqpoffs=0 / rc=crf / crf=18.0 / qcomp=0.60 / qpstep=4 / stats-write=0 / stats-read=0 / ipratio=1.40 / pbratio=1.30 / aq-mode=2 / aq-strength=1.00 / cutree / zone-count=0 / no-strict-cbr / qg-size=32 / no-rc-grain / qpmax=69 / qpmin=0 / no-const-vbv / sar=1 / overscan=0 / videoformat=5 / range=0 / colorprim=1 / transfer=1 / colormatrix=1 / chromaloc=0 / display-window=0 / cll=0,0 / min-luma=0 / max-luma=1023 / log2-max-poc-lsb=8 / vui-timing-info / vui-hrd-info / slices=1 / no-opt-qp-pps / no-opt-ref-list-length-pps / no-multi-pass-opt-rps / scenecut-bias=0.05 / no-opt-cu-delta-qp / no-aq-motion / no-hdr10 / no-hdr10-opt / no-dhdr10-opt / no-idr-recovery-sei / analysis-reuse-level=0 / analysis-save-reuse-level=0 / analysis-load-reuse-level=0 / scale-factor=0 / refine-intra=0 / refine-inter=0 / refine-mv=1 / refine-ctu-distortion=0 / no-limit-sao / ctu-info=0 / no-lowpass-dct / refine-analysis-type=0 / copy-pic=1 / max-ausize-factor=1.0 / no-dynamic-refine / no-single-sei / no-hevc-aq / no-svt / no-field / qp-adaptation-range=1.00 / scenecut-aware-qp=0conformance-window-offsets / right=0 / bottom=0 / decoder-max-rate=0 / no-vbv-live-multi-pass / no-mcstf / no-sbrc
Default                        : Yes
Forced                         : No
Color range                    : Limited
Color primaries                : BT.709
Transfer characteristics       : BT.709
Matrix coefficients            : BT.709

Audio #1
ID                             : 2
Format                         : PCM
Format settings                : Little / Signed
Codec ID                       : A_PCM/INT/LIT
Duration                       : 3 min 43 s
Bit rate mode                  : Constant
Bit rate                       : 1 411.2 kb/s
Channel(s)                     : 2 channels
Sampling rate                  : 44.1 kHz
Frame rate                     : 25.001 FPS (1764 SPF)
Bit depth                      : 16 bits
Stream size                    : 37.6 MiB (14%)
Language                       : English
Default                        : Yes
Forced                         : No

Audio #2
ID                             : 3
Format                         : AAC LC
Format/Info                    : Advanced Audio Codec Low Complexity
Codec ID                       : A_AAC-2
Duration                       : 3 min 43 s
Bit rate                       : 278 kb/s
Channel(s)                     : 2 channels
Channel layout                 : L R
Sampling rate                  : 48.0 kHz
Frame rate                     : 46.875 FPS (1024 SPF)
Compression mode               : Lossy
Stream size                    : 7.40 MiB (3%)
Language                       : English
Default                        : No
Forced                         : No

Text
ID                             : 4
Format                         : UTF-8
Codec ID                       : S_TEXT/UTF8
Codec ID/Info                  : UTF-8 Plain Text
Duration                       : 3 min 34 s
Bit rate                       : 82 b/s
Frame rate                     : 0.528 FPS
Count of elements              : 113
Stream size                    : 2.16 KiB (0%)
Title                          : Lyrics
Language                       : English
Default                        : No
Forced                         : No
</pre>
</div></div>
</div><br>
<div class="bbCodeBlock bbCodeVfcHH HiddenContent">
<div class="attribution type">Hidden Content:</div>
<blockquote>You must reply before you can see the hidden data contained here.</blockquote>
</div>
<div class="messageTextEndMarker">&nbsp;</div>
</blockquote>
</article>]]></description>
                <author><![CDATA[ADHDerby]]></author>
                </item>

                </channel></rss>